<svg width="34" height="34" viewBox="0 0 34 34" fill="none" xmlns="http://www.w3.org/2000/svg">
<path d="M17 3C9.28017 3 3 9.28017 3 17C3 24.7198 9.28017 31 17 31C24.7198 31 31 24.7198 31 17C31 9.28017 24.7198 3 17 3ZM17 5.33333C23.4575 5.33333 28.6667 10.5425 28.6667 17C28.6667 23.4575 23.4575 28.6667 17 28.6667C10.5425 28.6667 5.33333 23.4575 5.33333 17C5.33333 10.5425 10.5425 5.33333 17 5.33333ZM11.75 12.3333C11.2859 12.3333 10.8408 12.5177 10.5126 12.8459C10.1844 13.1741 10 13.6192 10 14.0833C10 14.5475 10.1844 14.9926 10.5126 15.3208C10.8408 15.649 11.2859 15.8333 11.75 15.8333C12.2141 15.8333 12.6592 15.649 12.9874 15.3208C13.3156 14.9926 13.5 14.5475 13.5 14.0833C13.5 13.6192 13.3156 13.1741 12.9874 12.8459C12.6592 12.5177 12.2141 12.3333 11.75 12.3333ZM22.25 12.3333C21.7859 12.3333 21.3408 12.5177 21.0126 12.8459C20.6844 13.1741 20.5 13.6192 20.5 14.0833C20.5 14.5475 20.6844 14.9926 21.0126 15.3208C21.3408 15.649 21.7859 15.8333 22.25 15.8333C22.7141 15.8333 23.1592 15.649 23.4874 15.3208C23.8156 14.9926 24 14.5475 24 14.0833C24 13.6192 23.8156 13.1741 23.4874 12.8459C23.1592 12.5177 22.7141 12.3333 22.25 12.3333ZM10.9473 20.5L8.943 21.6667C10.5565 24.4515 13.5548 26.3333 17 26.3333C20.4452 26.3333 23.4435 24.4515 25.057 21.6667L23.0527 20.5C22.4412 21.5646 21.5595 22.4488 20.4967 23.0634C19.4339 23.678 18.2277 24.0011 17 24C15.7723 24.0011 14.5661 23.678 13.5033 23.0634C12.4405 22.4488 11.5588 21.5646 10.9473 20.5Z" fill="black" fill-opacity="0.6"/>
</svg>
