<svg width="7" height="10" viewBox="0 0 7 10" fill="none" xmlns="http://www.w3.org/2000/svg">
<path d="M2.59766 6.49006V6.40909C2.60334 5.88068 2.65589 5.46023 2.75533 5.14773C2.8576 4.83523 3.00249 4.58239 3.18999 4.3892C3.37749 4.19602 3.60334 4.01989 3.86754 3.8608C4.038 3.75284 4.19141 3.6321 4.32777 3.49858C4.46413 3.36506 4.57209 3.21165 4.65163 3.03835C4.73118 2.86506 4.77095 2.6733 4.77095 2.46307C4.77095 2.21023 4.71129 1.99148 4.59197 1.80682C4.47266 1.62216 4.31357 1.48011 4.1147 1.38068C3.91868 1.27841 3.69993 1.22727 3.45845 1.22727C3.2397 1.22727 3.03089 1.27273 2.83203 1.36364C2.63317 1.45455 2.46839 1.59659 2.33771 1.78977C2.20703 1.98011 2.13175 2.22585 2.11186 2.52699H0.816406C0.836293 2.01562 0.965554 1.58381 1.20419 1.23153C1.44283 0.87642 1.75817 0.607954 2.15021 0.426136C2.5451 0.244318 2.98118 0.153409 3.45845 0.153409C3.98118 0.153409 4.43857 0.25142 4.83061 0.447443C5.22266 0.640625 5.52663 0.911932 5.74254 1.26136C5.96129 1.60795 6.07067 2.01278 6.07067 2.47585C6.07067 2.79403 6.02095 3.08097 5.92152 3.33665C5.82209 3.58949 5.68004 3.81534 5.49538 4.0142C5.31357 4.21307 5.09482 4.3892 4.83913 4.54261C4.59766 4.69318 4.40163 4.84943 4.25107 5.01136C4.10334 5.1733 3.99538 5.36506 3.9272 5.58665C3.85902 5.80824 3.82209 6.08239 3.81641 6.40909V6.49006H2.59766ZM3.24112 9.08097C3.00817 9.08097 2.80788 8.99858 2.64027 8.83381C2.47266 8.66619 2.38885 8.46449 2.38885 8.22869C2.38885 7.99574 2.47266 7.79687 2.64027 7.6321C2.80788 7.46449 3.00817 7.38068 3.24112 7.38068C3.47124 7.38068 3.6701 7.46449 3.83771 7.6321C4.00817 7.79687 4.0934 7.99574 4.0934 8.22869C4.0934 8.38494 4.05362 8.52841 3.97408 8.65909C3.89737 8.78693 3.7951 8.8892 3.66726 8.96591C3.53942 9.04261 3.39737 9.08097 3.24112 9.08097Z" fill="white"/>
</svg>
